<?xml version="1.0" encoding="UTF-8" standalone="no"?>
<!-- Created with Inkscape (http://www.inkscape.org/) -->

<svg
   xmlns:dc="http://purl.org/dc/elements/1.1/"
   xmlns:cc="http://creativecommons.org/ns#"
   xmlns:rdf="http://www.w3.org/1999/02/22-rdf-syntax-ns#"
   xmlns:svg="http://www.w3.org/2000/svg"
   xmlns="http://www.w3.org/2000/svg"
   xmlns:xlink="http://www.w3.org/1999/xlink"
   xmlns:sodipodi="http://sodipodi.sourceforge.net/DTD/sodipodi-0.dtd"
   xmlns:inkscape="http://www.inkscape.org/namespaces/inkscape"
   width="48px"
   height="48px"
   id="svg3050"
   version="1.1"
   inkscape:version="0.48.3.1 r9886"
   sodipodi:docname="New document 2">
  <defs
     id="defs3052">
    <linearGradient
       inkscape:collect="always"
       xlink:href="#linearGradient3988"
       id="linearGradient4003"
       gradientUnits="userSpaceOnUse"
       x1="773.35852"
       y1="88.404396"
       x2="438.12259"
       y2="371.40045"
       gradientTransform="matrix(-0.14339064,0,0,0.14339064,83.459634,-52.490695)" />
    <linearGradient
       id="linearGradient3988">
      <stop
         style="stop-color:#aaaaaa;stop-opacity:1;"
         offset="0"
         id="stop3990" />
      <stop
         style="stop-color:#959595;stop-opacity:0;"
         offset="1"
         id="stop3992" />
    </linearGradient>
  </defs>
  <sodipodi:namedview
     id="base"
     pagecolor="#ffffff"
     bordercolor="#666666"
     borderopacity="1.0"
     inkscape:pageopacity="0.0"
     inkscape:pageshadow="2"
     inkscape:zoom="2.4748737"
     inkscape:cx="48.336525"
     inkscape:cy="0.70805377"
     inkscape:current-layer="layer1"
     showgrid="true"
     inkscape:grid-bbox="true"
     inkscape:document-units="px"
     inkscape:window-width="1366"
     inkscape:window-height="719"
     inkscape:window-x="0"
     inkscape:window-y="25"
     inkscape:window-maximized="1" />
  <metadata
     id="metadata3055">
    <rdf:RDF>
      <cc:Work
         rdf:about="">
        <dc:format>image/svg+xml</dc:format>
        <dc:type
           rdf:resource="http://purl.org/dc/dcmitype/StillImage" />
        <dc:title></dc:title>
      </cc:Work>
    </rdf:RDF>
  </metadata>
  <g
     id="layer1"
     inkscape:label="Layer 1"
     inkscape:groupmode="layer">
    <g
       id="g3089"
       transform="matrix(0.78893299,0,0,0.78893299,-0.79153494,15.091866)">
      <rect
         inkscape:export-ydpi="10.182337"
         inkscape:export-xdpi="10.182337"
         inkscape:export-filename="/home/shubham/Shubham/Link to DA/SVG/Ubuntu Studio/Icons/MIDI/path4688.png"
         transform="scale(-1,1)"
         ry="8.461051"
         y="-19.132029"
         x="-61.847134"
         height="60.835499"
         width="60.835499"
         id="rect3969"
         style="fill:#000000;fill-opacity:1;stroke:none" />
      <path
         inkscape:export-ydpi="10.182337"
         inkscape:export-xdpi="10.182337"
         inkscape:export-filename="/home/shubham/Shubham/Link to DA/SVG/Ubuntu Studio/Icons/MIDI/path4688.png"
         id="rect3979"
         d="M 39.806144,-19.129966 C 19.553494,-15.717924 3.6929045,0.62692923 1.010014,21.117996 l 0,-31.787914 c 0,-4.687421 3.7771074,-8.460048 8.4645289,-8.460048 l 30.3316011,0 z M 1.0189759,33.521286 c 0.089073,0.673258 0.1919685,1.343502 0.3091861,2.007469 C 1.1496091,34.88726 1.0413161,34.2156 1.0189759,33.521286 z"
         style="fill:url(#linearGradient4003);fill-opacity:1;stroke:none"
         inkscape:connector-curvature="0" />
      <g
         inkscape:export-ydpi="10.182337"
         inkscape:export-xdpi="10.182337"
         inkscape:export-filename="/home/shubham/Shubham/Link to DA/SVG/Ubuntu Studio/Icons/MIDI/path4688.png"
         transform="matrix(0.1326794,0,0,0.1326794,-16.71581,-47.771554)"
         id="g3015">
        <path
           inkscape:connector-curvature="0"
           inkscape:export-filename="/home/shubham/Shubham/Link to DA/SVG/Ubuntu Studio/Icons/MIDI/path4688.png"
           inkscape:export-xdpi="10.182337"
           inkscape:export-ydpi="10.182337"
           style="fill:#ffffff;fill-opacity:1;stroke:none"
           d="m 362.875,264.78125 c -100.448,0 -181.90625,81.432 -181.90625,181.875 0,77.34737 48.29919,143.42519 116.375,169.71875 -0.009,-0.4589 -0.0314,-0.91383 -0.0313,-1.375 -0.013,-36.20452 29.32673,-65.5625 65.53125,-65.5625 36.20712,0 65.5625,29.35798 65.5625,65.5625 0,0.4506 -0.0222,0.89532 -0.0313,1.34375 68.07126,-26.29974 116.375,-92.34529 116.375,-169.6875 -0.002,-100.443 -81.428,-181.875 -181.875,-181.875 z"
           id="path4690" />
        <path
           inkscape:connector-curvature="0"
           d="m 444.13965,446.6449 c 0,13.893 11.262,25.148 25.15,25.148 13.895,0 25.149,-11.258 25.149,-25.148 0,-13.883 -11.257,-25.146 -25.149,-25.146 -13.89,0.001 -25.15,11.263 -25.15,25.146 z"
           style="fill:#000000;fill-opacity:1;stroke:none"
           id="path4680"
           inkscape:export-filename="/home/shubham/Shubham/Link to DA/SVG/Ubuntu Studio/Icons/MIDI/path4688.png"
           inkscape:export-xdpi="10.182337"
           inkscape:export-ydpi="10.182337" />
        <path
           inkscape:connector-curvature="0"
           d="m 231.27265,446.6449 c 0,13.893 11.262,25.148 25.151,25.148 13.894,0 25.151,-11.258 25.151,-25.148 0,-13.883 -11.257,-25.146 -25.151,-25.146 -13.889,0.001 -25.151,11.263 -25.151,25.146 z"
           style="fill:#000000;fill-opacity:1;stroke:none"
           id="path4682"
           inkscape:export-filename="/home/shubham/Shubham/Link to DA/SVG/Ubuntu Studio/Icons/MIDI/path4688.png"
           inkscape:export-xdpi="10.182337"
           inkscape:export-ydpi="10.182337" />
        <path
           inkscape:connector-curvature="0"
           d="m 269.81765,353.6149 c -9.82,9.82 -9.82,25.746 0.005,35.566 9.821,9.826 25.74,9.826 35.566,0 9.814,-9.815 9.82,-25.741 -0.005,-35.561 -9.821,-9.825 -25.746,-9.825 -35.566,-0.005 z"
           style="fill:#000000;fill-opacity:1;stroke:none"
           id="path4684"
           inkscape:export-filename="/home/shubham/Shubham/Link to DA/SVG/Ubuntu Studio/Icons/MIDI/path4688.png"
           inkscape:export-xdpi="10.182337"
           inkscape:export-ydpi="10.182337" />
        <path
           inkscape:connector-curvature="0"
           d="m 362.85665,315.0869 c -13.888,0 -25.15,11.262 -25.145,25.15 -0.005,13.894 11.251,25.151 25.148,25.151 13.877,0 25.143,-11.257 25.143,-25.151 0,-13.888 -11.257,-25.15 -25.146,-25.15 z"
           style="fill:#000000;fill-opacity:1;stroke:none"
           id="path4686"
           inkscape:export-filename="/home/shubham/Shubham/Link to DA/SVG/Ubuntu Studio/Icons/MIDI/path4688.png"
           inkscape:export-xdpi="10.182337"
           inkscape:export-ydpi="10.182337" />
        <path
           inkscape:connector-curvature="0"
           d="m 455.88665,353.6319 c -9.814,-9.821 -25.745,-9.821 -35.562,0.005 -9.831,9.82 -9.831,25.739 -0.005,35.565 9.815,9.815 25.74,9.821 35.562,-0.005 9.825,-9.821 9.825,-25.746 0.005,-35.565 z"
           style="fill:#000000;fill-opacity:1;stroke:none"
           id="path4688"
           inkscape:export-xdpi="10.182337"
           inkscape:export-ydpi="10.182337" />
      </g>
    </g>
  </g>
</svg>
