<?xml version="1.0" encoding="UTF-8" standalone="no"?>
<!-- Created with Inkscape (http://www.inkscape.org/) -->

<svg
   xmlns:dc="http://purl.org/dc/elements/1.1/"
   xmlns:cc="http://creativecommons.org/ns#"
   xmlns:rdf="http://www.w3.org/1999/02/22-rdf-syntax-ns#"
   xmlns:svg="http://www.w3.org/2000/svg"
   xmlns="http://www.w3.org/2000/svg"
   xmlns:xlink="http://www.w3.org/1999/xlink"
   xmlns:sodipodi="http://sodipodi.sourceforge.net/DTD/sodipodi-0.dtd"
   xmlns:inkscape="http://www.inkscape.org/namespaces/inkscape"
   version="1.2"
   width="48"
   height="48"
   id="svg2985"
   inkscape:version="0.48.3.1 r9886"
   sodipodi:docname="ubuntustudio-video.svg">
  <sodipodi:namedview
     pagecolor="#ffffff"
     bordercolor="#666666"
     borderopacity="1"
     objecttolerance="10"
     gridtolerance="10"
     guidetolerance="10"
     inkscape:pageopacity="0"
     inkscape:pageshadow="2"
     inkscape:window-width="722"
     inkscape:window-height="593"
     id="namedview80"
     showgrid="false"
     inkscape:showpageshadow="false"
     showborder="false"
     inkscape:zoom="4.9166667"
     inkscape:cx="24"
     inkscape:cy="24"
     inkscape:window-x="254"
     inkscape:window-y="103"
     inkscape:window-maximized="0"
     inkscape:current-layer="svg2985" />
  <defs
     id="defs2987">
    <linearGradient
       id="linearGradient3925">
      <stop
         id="stop3927"
         style="stop-color:#b9b9ff;stop-opacity:1"
         offset="0" />
      <stop
         id="stop3929"
         style="stop-color:#1e1ead;stop-opacity:1"
         offset="1" />
    </linearGradient>
    <linearGradient
       id="linearGradient3913">
      <stop
         id="stop3915"
         style="stop-color:#a5a5ff;stop-opacity:1"
         offset="0" />
      <stop
         id="stop3917"
         style="stop-color:#4141ff;stop-opacity:1"
         offset="1" />
    </linearGradient>
    <linearGradient
       id="linearGradient3998">
      <stop
         id="stop4000"
         style="stop-color:#ffffff;stop-opacity:1"
         offset="0" />
      <stop
         id="stop4002"
         style="stop-color:#9bd8ff;stop-opacity:0"
         offset="1" />
    </linearGradient>
    <linearGradient
       x1="23.165178"
       y1="0.68526787"
       x2="23.165178"
       y2="4.4604325"
       id="linearGradient4004"
       xlink:href="#linearGradient3998"
       gradientUnits="userSpaceOnUse"
       gradientTransform="translate(0,0.28571429)" />
    <filter
       x="-0.020102805"
       y="-0.17208"
       width="1.0402056"
       height="1.34416"
       color-interpolation-filters="sRGB"
       id="filter4026">
      <feGaussianBlur
         id="feGaussianBlur4028"
         stdDeviation="0.39210937" />
    </filter>
    <clipPath
       id="clipPath4040">
      <path
         d="m 47.40625,6.3482143 0,-1.75 c 0,-2.0544256 -1.664324,-3.71875001 -3.71875,-3.71875001 l -39.375,0 c -2.0544256,0 -3.71875,1.66432441 -3.71875,3.71875001 l 0,1.75"
         transform="matrix(0.9956129,0,0,0.9956129,0.10529039,0.01585428)"
         id="path4042"
         style="fill:none;stroke:url(#linearGradient4044);stroke-opacity:1;filter:url(#filter4026)" />
    </clipPath>
    <linearGradient
       x1="23.165178"
       y1="0.68526787"
       x2="23.165178"
       y2="6.0777183"
       id="linearGradient4044"
       xlink:href="#linearGradient3998"
       gradientUnits="userSpaceOnUse"
       gradientTransform="translate(0,0.28571429)" />
    <filter
       x="-0.013401869"
       y="-0.11472"
       width="1.0268037"
       height="1.22944"
       color-interpolation-filters="sRGB"
       id="filter4050">
      <feGaussianBlur
         id="feGaussianBlur4052"
         stdDeviation="0.26140625" />
    </filter>
    <linearGradient
       x1="23.165178"
       y1="0.68526787"
       x2="23.165178"
       y2="4.4604325"
       id="linearGradient4350"
       xlink:href="#linearGradient3998"
       gradientUnits="userSpaceOnUse"
       gradientTransform="translate(0,0.28571429)" />
    <linearGradient
       x1="23.165178"
       y1="0.68526787"
       x2="23.165178"
       y2="4.4604325"
       id="linearGradient4005"
       xlink:href="#linearGradient3998"
       gradientUnits="userSpaceOnUse"
       gradientTransform="translate(0,0.28571429)" />
    <linearGradient
       x1="28.40358"
       y1="0.36285186"
       x2="28.40358"
       y2="47.453629"
       id="linearGradient3102"
       xlink:href="#linearGradient3913"
       gradientUnits="userSpaceOnUse"
       gradientTransform="matrix(1.008439,0,0,1.008439,173.52369,99.799751)" />
    <linearGradient
       x1="23.857143"
       y1="0.14285906"
       x2="23.857143"
       y2="47.430515"
       id="linearGradient3104"
       xlink:href="#linearGradient3925"
       gradientUnits="userSpaceOnUse"
       gradientTransform="matrix(1.008439,0,0,1.008439,173.52369,99.799751)" />
    <linearGradient
       x1="28.40358"
       y1="0.36285186"
       x2="28.40358"
       y2="47.453629"
       id="linearGradient3896"
       xlink:href="#linearGradient3913"
       gradientUnits="userSpaceOnUse"
       gradientTransform="matrix(1.008439,0,0,1.008439,249.77369,99.799751)" />
    <linearGradient
       x1="23.857143"
       y1="0.14285906"
       x2="23.857143"
       y2="47.430515"
       id="linearGradient3898"
       xlink:href="#linearGradient3925"
       gradientUnits="userSpaceOnUse"
       gradientTransform="matrix(1.008439,0,0,1.008439,249.77369,99.799751)" />
    <linearGradient
       x1="23.165178"
       y1="0.68526787"
       x2="23.165178"
       y2="4.4604325"
       id="linearGradient3900"
       xlink:href="#linearGradient3998"
       gradientUnits="userSpaceOnUse"
       gradientTransform="translate(0,0.28571429)" />
    <linearGradient
       x1="23.165178"
       y1="0.68526787"
       x2="23.165178"
       y2="4.4604325"
       id="linearGradient4226"
       xlink:href="#linearGradient3998"
       gradientUnits="userSpaceOnUse"
       gradientTransform="translate(0,0.28571429)" />
    <linearGradient
       x1="28.40358"
       y1="0.36285186"
       x2="28.40358"
       y2="47.453629"
       id="linearGradient3219"
       xlink:href="#linearGradient3913"
       gradientUnits="userSpaceOnUse"
       gradientTransform="matrix(1.008439,0,0,1.008439,245.85609,-0.20024894)" />
    <linearGradient
       x1="23.857143"
       y1="0.14285906"
       x2="23.857143"
       y2="47.430515"
       id="linearGradient3221"
       xlink:href="#linearGradient3925"
       gradientUnits="userSpaceOnUse"
       gradientTransform="matrix(1.008439,0,0,1.008439,245.85609,-0.20024894)" />
    <linearGradient
       x1="23.165178"
       y1="0.68526787"
       x2="23.165178"
       y2="4.4604325"
       id="linearGradient3223"
       xlink:href="#linearGradient3998"
       gradientUnits="userSpaceOnUse"
       gradientTransform="translate(0,0.28571429)" />
    <linearGradient
       x1="28.40358"
       y1="0.36285186"
       x2="28.40358"
       y2="47.453629"
       id="linearGradient3293"
       xlink:href="#linearGradient3913"
       gradientUnits="userSpaceOnUse"
       gradientTransform="matrix(1.008439,0,0,1.008439,321.85311,-0.20024894)" />
    <linearGradient
       x1="23.857143"
       y1="0.14285906"
       x2="23.857143"
       y2="47.430515"
       id="linearGradient3295"
       xlink:href="#linearGradient3925"
       gradientUnits="userSpaceOnUse"
       gradientTransform="matrix(1.008439,0,0,1.008439,321.85311,-0.20024894)" />
    <linearGradient
       x1="23.165178"
       y1="0.68526787"
       x2="23.165178"
       y2="4.4604325"
       id="linearGradient3297"
       xlink:href="#linearGradient3998"
       gradientUnits="userSpaceOnUse"
       gradientTransform="translate(0,0.28571429)" />
    <linearGradient
       x1="28.40358"
       y1="0.36285186"
       x2="28.40358"
       y2="47.453629"
       id="linearGradient3312"
       xlink:href="#linearGradient3913"
       gradientUnits="userSpaceOnUse"
       gradientTransform="matrix(1.008439,0,0,1.008439,245.85609,-0.20024894)" />
    <linearGradient
       x1="23.857143"
       y1="0.14285906"
       x2="23.857143"
       y2="47.430515"
       id="linearGradient3314"
       xlink:href="#linearGradient3925"
       gradientUnits="userSpaceOnUse"
       gradientTransform="matrix(1.008439,0,0,1.008439,245.85609,-0.20024894)" />
    <linearGradient
       x1="23.165178"
       y1="0.68526787"
       x2="23.165178"
       y2="4.4604325"
       id="linearGradient3316"
       xlink:href="#linearGradient3998"
       gradientUnits="userSpaceOnUse"
       gradientTransform="translate(0,0.28571429)" />
    <linearGradient
       x1="23.165178"
       y1="0.68526787"
       x2="23.165178"
       y2="4.4604325"
       id="linearGradient3325"
       xlink:href="#linearGradient3998"
       gradientUnits="userSpaceOnUse"
       gradientTransform="translate(0,0.28571429)" />
    <linearGradient
       x1="28.40358"
       y1="0.36285186"
       x2="28.40358"
       y2="47.453629"
       id="linearGradient3330"
       xlink:href="#linearGradient3913"
       gradientUnits="userSpaceOnUse"
       gradientTransform="matrix(1.008439,0,0,1.008439,79.79744,99.797462)" />
    <linearGradient
       x1="23.857143"
       y1="0.14285906"
       x2="23.857143"
       y2="47.430515"
       id="linearGradient3332"
       xlink:href="#linearGradient3925"
       gradientUnits="userSpaceOnUse"
       gradientTransform="matrix(1.008439,0,0,1.008439,79.79744,99.797462)" />
    <linearGradient
       x1="28.40358"
       y1="0.36285186"
       x2="28.40358"
       y2="47.453629"
       id="linearGradient3109"
       xlink:href="#linearGradient3913"
       gradientUnits="userSpaceOnUse"
       gradientTransform="matrix(1.008439,0,0,1.008439,321.85311,-0.20024894)" />
    <linearGradient
       x1="23.857143"
       y1="0.14285906"
       x2="23.857143"
       y2="47.430515"
       id="linearGradient3111"
       xlink:href="#linearGradient3925"
       gradientUnits="userSpaceOnUse"
       gradientTransform="matrix(1.008439,0,0,1.008439,321.85311,-0.20024894)" />
    <linearGradient
       x1="23.165178"
       y1="0.68526787"
       x2="23.165178"
       y2="4.4604325"
       id="linearGradient3113"
       xlink:href="#linearGradient3998"
       gradientUnits="userSpaceOnUse"
       gradientTransform="translate(0,0.28571429)" />
    <linearGradient
       x1="28.40358"
       y1="0.36285186"
       x2="28.40358"
       y2="47.453629"
       id="linearGradient3115"
       xlink:href="#linearGradient3913"
       gradientUnits="userSpaceOnUse"
       gradientTransform="matrix(1.008439,0,0,1.008439,-0.20320971,-0.20188362)" />
    <linearGradient
       x1="23.857143"
       y1="0.14285906"
       x2="23.857143"
       y2="47.430515"
       id="linearGradient3117"
       xlink:href="#linearGradient3925"
       gradientUnits="userSpaceOnUse"
       gradientTransform="matrix(1.008439,0,0,1.008439,-0.20320971,-0.20188362)" />
    <linearGradient
       x1="23.165178"
       y1="0.68526787"
       x2="23.165178"
       y2="4.4604325"
       id="linearGradient3119"
       xlink:href="#linearGradient3998"
       gradientUnits="userSpaceOnUse"
       gradientTransform="translate(0,0.28571429)" />
    <linearGradient
       x1="28.40358"
       y1="0.36285186"
       x2="28.40358"
       y2="47.453629"
       id="linearGradient3121"
       xlink:href="#linearGradient3913"
       gradientUnits="userSpaceOnUse"
       gradientTransform="matrix(1.008439,0,0,1.008439,321.85311,-0.20024894)" />
    <linearGradient
       x1="23.857143"
       y1="0.14285906"
       x2="23.857143"
       y2="47.430515"
       id="linearGradient3123"
       xlink:href="#linearGradient3925"
       gradientUnits="userSpaceOnUse"
       gradientTransform="matrix(1.008439,0,0,1.008439,321.85311,-0.20024894)" />
    <linearGradient
       x1="23.165178"
       y1="0.68526787"
       x2="23.165178"
       y2="4.4604325"
       id="linearGradient3125"
       xlink:href="#linearGradient3998"
       gradientUnits="userSpaceOnUse"
       gradientTransform="translate(0,0.28571429)" />
    <linearGradient
       x1="23.857143"
       y1="0.14285906"
       x2="23.857143"
       y2="47.430515"
       id="linearGradient3129"
       xlink:href="#linearGradient3925"
       gradientUnits="userSpaceOnUse"
       gradientTransform="matrix(1.008439,0,0,1.008439,-0.20320971,-0.20188362)" />
    <linearGradient
       x1="23.165178"
       y1="0.68526787"
       x2="23.165178"
       y2="4.4604325"
       id="linearGradient3131"
       xlink:href="#linearGradient3998"
       gradientUnits="userSpaceOnUse"
       gradientTransform="translate(0,0.28571429)" />
    <linearGradient
       x1="28.40358"
       y1="0.36285186"
       x2="28.40358"
       y2="47.453629"
       id="linearGradient3904"
       xlink:href="#linearGradient3913"
       gradientUnits="userSpaceOnUse"
       gradientTransform="matrix(1.008439,0,0,1.008439,-58.89665,79.79975)" />
    <linearGradient
       x1="23.857143"
       y1="0.14285906"
       x2="23.857143"
       y2="47.430515"
       id="linearGradient3906"
       xlink:href="#linearGradient3925"
       gradientUnits="userSpaceOnUse"
       gradientTransform="matrix(1.008439,0,0,1.008439,-58.89665,79.79975)" />
    <linearGradient
       x1="23.165178"
       y1="0.68526787"
       x2="23.165178"
       y2="4.4604325"
       id="linearGradient7201"
       xlink:href="#linearGradient3998"
       gradientUnits="userSpaceOnUse"
       gradientTransform="translate(0,0.28571429)" />
    <linearGradient
       x1="28.40358"
       y1="0.36285186"
       x2="28.40358"
       y2="47.453629"
       id="linearGradient7203"
       xlink:href="#linearGradient3913"
       gradientUnits="userSpaceOnUse"
       gradientTransform="matrix(1.008439,0,0,1.008439,79.79744,99.797462)" />
    <linearGradient
       x1="23.857143"
       y1="0.14285906"
       x2="23.857143"
       y2="47.430515"
       id="linearGradient7205"
       xlink:href="#linearGradient3925"
       gradientUnits="userSpaceOnUse"
       gradientTransform="matrix(1.008439,0,0,1.008439,79.79744,99.797462)" />
    <linearGradient
       x1="28.40358"
       y1="0.36285186"
       x2="28.40358"
       y2="47.453629"
       id="linearGradient7207"
       xlink:href="#linearGradient3913"
       gradientUnits="userSpaceOnUse"
       gradientTransform="matrix(1.008439,0,0,1.008439,321.85311,-0.20024894)" />
    <linearGradient
       x1="23.857143"
       y1="0.14285906"
       x2="23.857143"
       y2="47.430515"
       id="linearGradient7209"
       xlink:href="#linearGradient3925"
       gradientUnits="userSpaceOnUse"
       gradientTransform="matrix(1.008439,0,0,1.008439,321.85311,-0.20024894)" />
    <linearGradient
       x1="23.165178"
       y1="0.68526787"
       x2="23.165178"
       y2="4.4604325"
       id="linearGradient7211"
       xlink:href="#linearGradient3998"
       gradientUnits="userSpaceOnUse"
       gradientTransform="translate(0,0.28571429)" />
  </defs>
  <metadata
     id="metadata2990">
    <rdf:RDF>
      <cc:Work
         rdf:about="">
        <dc:format>image/svg+xml</dc:format>
        <dc:type
           rdf:resource="http://purl.org/dc/dcmitype/StillImage" />
        <dc:title />
      </cc:Work>
    </rdf:RDF>
  </metadata>
  <g
     id="layer1">
    <flowRoot
       transform="matrix(1.008439,0,0,1.008439,-0.20024895,-0.20024895)"
       id="flowRoot4058"
       xml:space="preserve"
       style="font-size:40px;font-style:normal;font-weight:normal;line-height:125%;letter-spacing:0px;word-spacing:0px;fill:#000000;fill-opacity:1;stroke:none;font-family:Sans"><flowRegion
         id="flowRegion4060"><rect
           width="137.98683"
           height="99.803062"
           x="-45.456863"
           y="-30.185806"
           id="rect4062" /></flowRegion><flowPara
         id="flowPara4064" /></flowRoot>    <flowRoot
       transform="matrix(1.008439,0,0,1.008439,399.79746,0.2974617)"
       id="flowRoot4058-2"
       xml:space="preserve"
       style="font-size:40px;font-style:normal;font-weight:normal;line-height:125%;letter-spacing:0px;word-spacing:0px;fill:#000000;fill-opacity:1;stroke:none;font-family:Sans"><flowRegion
         id="flowRegion4060-5"><rect
           width="137.98683"
           height="99.803062"
           x="-45.456863"
           y="-30.185806"
           id="rect4062-5" /></flowRegion><flowPara
         id="flowPara4064-1" /></flowRoot>    <flowRoot
       transform="matrix(1.008439,0,0,1.008439,436.12398,-10.497217)"
       id="flowRoot4058-4"
       xml:space="preserve"
       style="font-size:40px;font-style:normal;font-weight:normal;line-height:125%;letter-spacing:0px;word-spacing:0px;fill:#000000;fill-opacity:1;stroke:none;font-family:Sans"><flowRegion
         id="flowRegion4060-6"><rect
           width="137.98683"
           height="99.803062"
           x="-45.456863"
           y="-30.185806"
           id="rect4062-6" /></flowRegion><flowPara
         id="flowPara4064-19" /></flowRoot>    <rect
       width="47.393627"
       height="47.393627"
       ry="3.7568119"
       x="0.30253175"
       y="0.30384108"
       id="rect3089"
       style="fill:url(#linearGradient3115);fill-opacity:1;stroke:url(#linearGradient3117);stroke-width:0.6050635;stroke-linecap:square;stroke-linejoin:round;stroke-miterlimit:4;stroke-opacity:1;stroke-dasharray:none" />
    <path
       d="m 47.40625,6.3482143 0,-1.75 c 0,-2.0544256 -1.664324,-3.71875001 -3.71875,-3.71875001 l -39.375,0 c -2.0544256,0 -3.71875,1.66432441 -3.71875,3.71875001 l 0,1.75"
       transform="matrix(1.0137743,0,0,1.0035518,-0.33124971,-0.63388795)"
       clip-path="url(#clipPath4040)"
       id="path3091"
       style="fill:none;stroke:url(#linearGradient3119);stroke-width:0.59789759;stroke-miterlimit:4;stroke-opacity:1;stroke-dasharray:none;filter:url(#filter4050)"
       inkscape:connector-curvature="0" />
    <path
       d="m 17.0032,3.5921154 0,2.4374999 c 0,0.2744252 -0.22557,0.5 -0.5,0.5 l -1.4375,0 c -0.27442,0 -0.5,-0.2255748 -0.5,-0.5 l 0,-2.0312499 c -0.30853,0.2830326 -0.5,0.7013043 -0.5,1.1562499 l 0,37.6875007 c 0,0.454945 0.19147,0.873217 0.5,1.15625 l 0,-2.03125 c 0,-0.274425 0.22558,-0.5 0.5,-0.5 l 1.4375,0 c 0.27443,0 0.5,0.225575 0.5,0.5 l 0,2.4375 1.0625,0 0,-2.1875 c 0,-0.816879 0.76268,-1.5 1.71875,-1.5 l 8.46875,0 c 0.95607,0 1.75,0.683121 1.75,1.5 l 0,2.1875 0.96875,0 0,-2.4375 c 0,-0.274425 0.22558,-0.5 0.5,-0.5 l 1.4375,0 c 0.27443,0 0.5,0.225575 0.5,0.5 l 0,2.03125 c 0.31727,-0.283626 0.53125,-0.693958 0.53125,-1.15625 l 0,-37.6875007 c 0,-0.4622916 -0.21398,-0.8726244 -0.53125,-1.1562499 l 0,2.0312499 c 0,0.2744252 -0.22557,0.5 -0.5,0.5 l -1.4375,0 c -0.27442,0 -0.5,-0.2255748 -0.5,-0.5 l 0,-2.4374999 -0.96875,0 0,2.2187499 c 0,0.8168801 -0.79393,1.46875 -1.75,1.46875 l -8.46875,0 c -0.95607,0 -1.71875,-0.6518699 -1.71875,-1.46875 l 0,-2.2187499 -1.0625,0 z m -1.9375,3.5312499 1.4375,0 c 0.27443,0 0.5,0.2255749 0.5,0.5 l 0,3.3125007 c 0,0.274425 -0.22557,0.5 -0.5,0.5 l -1.4375,0 c -0.27442,0 -0.5,-0.225575 -0.5,-0.5 l 0,-3.3125007 c 0,-0.2744251 0.22558,-0.5 0.5,-0.5 z m 16.40625,0 1.4375,0 c 0.27443,0 0.5,0.2255749 0.5,0.5 l 0,3.3125007 c 0,0.274425 -0.22557,0.5 -0.5,0.5 l -1.4375,0 c -0.27442,0 -0.5,-0.225575 -0.5,-0.5 l 0,-3.3125007 c 0,-0.2744251 0.22558,-0.5 0.5,-0.5 z m -16.40625,4.9062507 1.4375,0 c 0.27443,0 0.5,0.225574 0.5,0.5 l 0,3.3125 c 0,0.274425 -0.22557,0.5 -0.5,0.5 l -1.4375,0 c -0.27442,0 -0.5,-0.225575 -0.5,-0.5 l 0,-3.3125 c 0,-0.274426 0.22558,-0.5 0.5,-0.5 z m 4.71875,0 8.46875,0 c 0.95607,0 1.75,0.65187 1.75,1.46875 l 0,6.65625 c 0,0.81688 -0.79393,1.46875 -1.75,1.46875 l -8.46875,0 c -0.95607,0 -1.71875,-0.65187 -1.71875,-1.46875 l 0,-6.65625 c 0,-0.81688 0.76268,-1.46875 1.71875,-1.46875 z m 11.6875,0 1.4375,0 c 0.27443,0 0.5,0.225574 0.5,0.5 l 0,3.3125 c 0,0.274425 -0.22557,0.5 -0.5,0.5 l -1.4375,0 c -0.27442,0 -0.5,-0.225575 -0.5,-0.5 l 0,-3.3125 c 0,-0.274426 0.22558,-0.5 0.5,-0.5 z m -16.40625,4.90625 1.4375,0 c 0.27443,0 0.5,0.225575 0.5,0.5 l 0,3.3125 c 0,0.274425 -0.22557,0.5 -0.5,0.5 l -1.4375,0 c -0.27442,0 -0.5,-0.225575 -0.5,-0.5 l 0,-3.3125 c 0,-0.274425 0.22558,-0.5 0.5,-0.5 z m 16.40625,0 1.4375,0 c 0.27443,0 0.5,0.225575 0.5,0.5 l 0,3.3125 c 0,0.274425 -0.22557,0.5 -0.5,0.5 l -1.4375,0 c -0.27442,0 -0.5,-0.225575 -0.5,-0.5 l 0,-3.3125 c 0,-0.274425 0.22558,-0.5 0.5,-0.5 z m -16.40625,4.90625 1.4375,0 c 0.27443,0 0.5,0.225575 0.5,0.5 l 0,3.3125 c 0,0.274425 -0.22557,0.5 -0.5,0.5 l -1.4375,0 c -0.27442,0 -0.5,-0.225575 -0.5,-0.5 l 0,-3.3125 c 0,-0.274425 0.22558,-0.5 0.5,-0.5 z m 16.40625,0 1.4375,0 c 0.27443,0 0.5,0.225575 0.5,0.5 l 0,3.3125 c 0,0.274425 -0.22557,0.5 -0.5,0.5 l -1.4375,0 c -0.27442,0 -0.5,-0.225575 -0.5,-0.5 l 0,-3.3125 c 0,-0.274425 0.22558,-0.5 0.5,-0.5 z m -11.6875,4.5625 8.46875,0 c 0.95607,0 1.75,0.65187 1.75,1.46875 l 0,6.625 c 0,0.816879 -0.79393,1.46875 -1.75,1.46875 l -8.46875,0 c -0.95607,0 -1.71875,-0.651871 -1.71875,-1.46875 l 0,-6.625 c 0,-0.81688 0.76268,-1.46875 1.71875,-1.46875 z m -4.71875,0.34375 1.4375,0 c 0.27443,0 0.5,0.225575 0.5,0.5 l 0,3.3125 c 0,0.274426 -0.22557,0.5 -0.5,0.5 l -1.4375,0 c -0.27442,0 -0.5,-0.225574 -0.5,-0.5 l 0,-3.3125 c 0,-0.274425 0.22558,-0.5 0.5,-0.5 z m 16.40625,0 1.4375,0 c 0.27443,0 0.5,0.225575 0.5,0.5 l 0,3.3125 c 0,0.274426 -0.22557,0.5 -0.5,0.5 l -1.4375,0 c -0.27442,0 -0.5,-0.225574 -0.5,-0.5 l 0,-3.3125 c 0,-0.274425 0.22558,-0.5 0.5,-0.5 z m -16.40625,4.90625 1.4375,0 c 0.27443,0 0.5,0.225574 0.5,0.5 l 0,3.3125 c 0,0.274425 -0.22557,0.5 -0.5,0.5 l -1.4375,0 c -0.27442,0 -0.5,-0.225575 -0.5,-0.5 l 0,-3.3125 c 0,-0.274426 0.22558,-0.5 0.5,-0.5 z m 16.40625,0 1.4375,0 c 0.27443,0 0.5,0.225574 0.5,0.5 l 0,3.3125 c 0,0.274425 -0.22557,0.5 -0.5,0.5 l -1.4375,0 c -0.27442,0 -0.5,-0.225575 -0.5,-0.5 l 0,-3.3125 c 0,-0.274426 0.22558,-0.5 0.5,-0.5 z m -16.40625,4.90625 1.4375,0 c 0.27443,0 0.5,0.225575 0.5,0.5 l 0,3.3125 c 0,0.274425 -0.22557,0.5 -0.5,0.5 l -1.4375,0 c -0.27442,0 -0.5,-0.225575 -0.5,-0.5 l 0,-3.3125 c 0,-0.274425 0.22558,-0.5 0.5,-0.5 z m 16.40625,0 1.4375,0 c 0.27443,0 0.5,0.225575 0.5,0.5 l 0,3.3125 c 0,0.274425 -0.22557,0.5 -0.5,0.5 l -1.4375,0 c -0.27442,0 -0.5,-0.225575 -0.5,-0.5 l 0,-3.3125 c 0,-0.274425 0.22558,-0.5 0.5,-0.5 z"
       id="path3093"
       style="fill:#19194f;fill-opacity:1;stroke:none"
       inkscape:connector-curvature="0" />
    <rect
       width="47.393627"
       height="47.393627"
       ry="3.7568119"
       x="0.30253175"
       y="0.30384108"
       id="rect3103"
       style="fill:#574bbc;fill-opacity:1;stroke:url(#linearGradient3129);stroke-width:0.6050635;stroke-linecap:square;stroke-linejoin:round;stroke-miterlimit:4;stroke-opacity:1;stroke-dasharray:none" />
    <path
       d="m 47.40625,6.3482143 0,-1.75 c 0,-2.0544256 -1.664324,-3.71875001 -3.71875,-3.71875001 l -39.375,0 c -2.0544256,0 -3.71875,1.66432441 -3.71875,3.71875001 l 0,1.75"
       transform="matrix(1.0137743,0,0,1.0035518,-0.33124971,-0.63388795)"
       clip-path="url(#clipPath4040)"
       id="path3105"
       style="fill:none;stroke:url(#linearGradient3131);stroke-width:0.59789759;stroke-miterlimit:4;stroke-opacity:1;stroke-dasharray:none;filter:url(#filter4050)"
       inkscape:connector-curvature="0" />
    <path
       d="m 17.0032,3.5921154 0,2.4374999 c 0,0.2744252 -0.22557,0.5 -0.5,0.5 l -1.4375,0 c -0.27442,0 -0.5,-0.2255748 -0.5,-0.5 l 0,-2.0312499 c -0.30853,0.2830326 -0.5,0.7013043 -0.5,1.1562499 l 0,37.6875007 c 0,0.454945 0.19147,0.873217 0.5,1.15625 l 0,-2.03125 c 0,-0.274425 0.22558,-0.5 0.5,-0.5 l 1.4375,0 c 0.27443,0 0.5,0.225575 0.5,0.5 l 0,2.4375 1.0625,0 0,-2.1875 c 0,-0.816879 0.76268,-1.5 1.71875,-1.5 l 8.46875,0 c 0.95607,0 1.75,0.683121 1.75,1.5 l 0,2.1875 0.96875,0 0,-2.4375 c 0,-0.274425 0.22558,-0.5 0.5,-0.5 l 1.4375,0 c 0.27443,0 0.5,0.225575 0.5,0.5 l 0,2.03125 c 0.31727,-0.283626 0.53125,-0.693958 0.53125,-1.15625 l 0,-37.6875007 c 0,-0.4622916 -0.21398,-0.8726244 -0.53125,-1.1562499 l 0,2.0312499 c 0,0.2744252 -0.22557,0.5 -0.5,0.5 l -1.4375,0 c -0.27442,0 -0.5,-0.2255748 -0.5,-0.5 l 0,-2.4374999 -0.96875,0 0,2.2187499 c 0,0.8168801 -0.79393,1.46875 -1.75,1.46875 l -8.46875,0 c -0.95607,0 -1.71875,-0.6518699 -1.71875,-1.46875 l 0,-2.2187499 -1.0625,0 z m -1.9375,3.5312499 1.4375,0 c 0.27443,0 0.5,0.2255749 0.5,0.5 l 0,3.3125007 c 0,0.274425 -0.22557,0.5 -0.5,0.5 l -1.4375,0 c -0.27442,0 -0.5,-0.225575 -0.5,-0.5 l 0,-3.3125007 c 0,-0.2744251 0.22558,-0.5 0.5,-0.5 z m 16.40625,0 1.4375,0 c 0.27443,0 0.5,0.2255749 0.5,0.5 l 0,3.3125007 c 0,0.274425 -0.22557,0.5 -0.5,0.5 l -1.4375,0 c -0.27442,0 -0.5,-0.225575 -0.5,-0.5 l 0,-3.3125007 c 0,-0.2744251 0.22558,-0.5 0.5,-0.5 z m -16.40625,4.9062507 1.4375,0 c 0.27443,0 0.5,0.225574 0.5,0.5 l 0,3.3125 c 0,0.274425 -0.22557,0.5 -0.5,0.5 l -1.4375,0 c -0.27442,0 -0.5,-0.225575 -0.5,-0.5 l 0,-3.3125 c 0,-0.274426 0.22558,-0.5 0.5,-0.5 z m 4.71875,0 8.46875,0 c 0.95607,0 1.75,0.65187 1.75,1.46875 l 0,6.65625 c 0,0.81688 -0.79393,1.46875 -1.75,1.46875 l -8.46875,0 c -0.95607,0 -1.71875,-0.65187 -1.71875,-1.46875 l 0,-6.65625 c 0,-0.81688 0.76268,-1.46875 1.71875,-1.46875 z m 11.6875,0 1.4375,0 c 0.27443,0 0.5,0.225574 0.5,0.5 l 0,3.3125 c 0,0.274425 -0.22557,0.5 -0.5,0.5 l -1.4375,0 c -0.27442,0 -0.5,-0.225575 -0.5,-0.5 l 0,-3.3125 c 0,-0.274426 0.22558,-0.5 0.5,-0.5 z m -16.40625,4.90625 1.4375,0 c 0.27443,0 0.5,0.225575 0.5,0.5 l 0,3.3125 c 0,0.274425 -0.22557,0.5 -0.5,0.5 l -1.4375,0 c -0.27442,0 -0.5,-0.225575 -0.5,-0.5 l 0,-3.3125 c 0,-0.274425 0.22558,-0.5 0.5,-0.5 z m 16.40625,0 1.4375,0 c 0.27443,0 0.5,0.225575 0.5,0.5 l 0,3.3125 c 0,0.274425 -0.22557,0.5 -0.5,0.5 l -1.4375,0 c -0.27442,0 -0.5,-0.225575 -0.5,-0.5 l 0,-3.3125 c 0,-0.274425 0.22558,-0.5 0.5,-0.5 z m -16.40625,4.90625 1.4375,0 c 0.27443,0 0.5,0.225575 0.5,0.5 l 0,3.3125 c 0,0.274425 -0.22557,0.5 -0.5,0.5 l -1.4375,0 c -0.27442,0 -0.5,-0.225575 -0.5,-0.5 l 0,-3.3125 c 0,-0.274425 0.22558,-0.5 0.5,-0.5 z m 16.40625,0 1.4375,0 c 0.27443,0 0.5,0.225575 0.5,0.5 l 0,3.3125 c 0,0.274425 -0.22557,0.5 -0.5,0.5 l -1.4375,0 c -0.27442,0 -0.5,-0.225575 -0.5,-0.5 l 0,-3.3125 c 0,-0.274425 0.22558,-0.5 0.5,-0.5 z m -11.6875,4.5625 8.46875,0 c 0.95607,0 1.75,0.65187 1.75,1.46875 l 0,6.625 c 0,0.816879 -0.79393,1.46875 -1.75,1.46875 l -8.46875,0 c -0.95607,0 -1.71875,-0.651871 -1.71875,-1.46875 l 0,-6.625 c 0,-0.81688 0.76268,-1.46875 1.71875,-1.46875 z m -4.71875,0.34375 1.4375,0 c 0.27443,0 0.5,0.225575 0.5,0.5 l 0,3.3125 c 0,0.274426 -0.22557,0.5 -0.5,0.5 l -1.4375,0 c -0.27442,0 -0.5,-0.225574 -0.5,-0.5 l 0,-3.3125 c 0,-0.274425 0.22558,-0.5 0.5,-0.5 z m 16.40625,0 1.4375,0 c 0.27443,0 0.5,0.225575 0.5,0.5 l 0,3.3125 c 0,0.274426 -0.22557,0.5 -0.5,0.5 l -1.4375,0 c -0.27442,0 -0.5,-0.225574 -0.5,-0.5 l 0,-3.3125 c 0,-0.274425 0.22558,-0.5 0.5,-0.5 z m -16.40625,4.90625 1.4375,0 c 0.27443,0 0.5,0.225574 0.5,0.5 l 0,3.3125 c 0,0.274425 -0.22557,0.5 -0.5,0.5 l -1.4375,0 c -0.27442,0 -0.5,-0.225575 -0.5,-0.5 l 0,-3.3125 c 0,-0.274426 0.22558,-0.5 0.5,-0.5 z m 16.40625,0 1.4375,0 c 0.27443,0 0.5,0.225574 0.5,0.5 l 0,3.3125 c 0,0.274425 -0.22557,0.5 -0.5,0.5 l -1.4375,0 c -0.27442,0 -0.5,-0.225575 -0.5,-0.5 l 0,-3.3125 c 0,-0.274426 0.22558,-0.5 0.5,-0.5 z m -16.40625,4.90625 1.4375,0 c 0.27443,0 0.5,0.225575 0.5,0.5 l 0,3.3125 c 0,0.274425 -0.22557,0.5 -0.5,0.5 l -1.4375,0 c -0.27442,0 -0.5,-0.225575 -0.5,-0.5 l 0,-3.3125 c 0,-0.274425 0.22558,-0.5 0.5,-0.5 z m 16.40625,0 1.4375,0 c 0.27443,0 0.5,0.225575 0.5,0.5 l 0,3.3125 c 0,0.274425 -0.22557,0.5 -0.5,0.5 l -1.4375,0 c -0.27442,0 -0.5,-0.225575 -0.5,-0.5 l 0,-3.3125 c 0,-0.274425 0.22558,-0.5 0.5,-0.5 z"
       id="path3107"
       style="fill:#ffffff;fill-opacity:1;stroke:none"
       inkscape:connector-curvature="0" />
  </g>
</svg>
